<svg id="Layer_1" data-name="Layer 1" xmlns="http://www.w3.org/2000/svg" viewBox="0 0 92 56"><defs><style>.cls-1{fill:#fff;}</style></defs><title>Logo-Jeep-Plan</title><path class="cls-1" d="M76.36,28.42v8.32H69.51V9.62h6.76v2.81l.07,0c.15-.24.29-.49.45-.73A5.93,5.93,0,0,1,81.93,9a8.15,8.15,0,0,1,8.12,5.39,14.9,14.9,0,0,1-.55,12.08,7.73,7.73,0,0,1-8.12,4.39A7.52,7.52,0,0,1,76.36,28.42Zm-.2-7.93c0,.66.07,1.31.15,2a4.54,4.54,0,0,0,1,2.59,3.7,3.7,0,0,0,6.14-1.22,11.55,11.55,0,0,0,.29-6.7c-.58-2.41-2.54-3-4.45-2.71a3.31,3.31,0,0,0-2.59,2.43A11.19,11.19,0,0,0,76.16,20.48Z"/><path class="cls-1" d="M16.34.73h7.49v.5c0,6.27,0,12.54,0,18.81a9.88,9.88,0,0,1-2.89,7.36A9.93,9.93,0,0,1,15.56,30a17.77,17.77,0,0,1-8.25-.34A8.28,8.28,0,0,1,1,22.32C.76,20.43.82,18.5.75,16.55H8.07c0,.15,0,.31,0,.46,0,1.22-.05,2.45.07,3.66a3.64,3.64,0,0,0,3.43,3.37,4.92,4.92,0,0,0,2.79-.44,3.56,3.56,0,0,0,2-3.5q0-9.43,0-18.85Z"/><path class="cls-1" d="M67.78,21.17H54.21a4,4,0,0,0,2,4.27,3.73,3.73,0,0,0,4.68-1.39.43.43,0,0,1,.3-.2h6.36a.51.51,0,0,1,.13,0,3.73,3.73,0,0,1-.43,1.73,7.31,7.31,0,0,1-2.69,3,12.05,12.05,0,0,1-11.32,1.18,9,9,0,0,1-5.66-6.94A12.83,12.83,0,0,1,49.29,13c2-3.19,5-4.45,8.68-4.22a13.77,13.77,0,0,1,3.64.64,8,8,0,0,1,4.88,4.45A17.54,17.54,0,0,1,67.78,21.17ZM61,17a3.57,3.57,0,0,0-5.56-3.26c-1.13.76-1.3,2-1.34,3.26Z"/><path class="cls-1" d="M45.87,21.18H32.31a4.11,4.11,0,0,0,1.82,4.18,3.73,3.73,0,0,0,4.56-.93A1.31,1.31,0,0,1,40,23.84c1.77,0,3.54,0,5.32,0h.53a9,9,0,0,1-.2,1.08,7,7,0,0,1-2.8,3.58,12.05,12.05,0,0,1-8.26,2.07,9.58,9.58,0,0,1-6.32-2.84,9.89,9.89,0,0,1-2.76-6,12.92,12.92,0,0,1,2.41-9.48,8.5,8.5,0,0,1,7-3.5,14.5,14.5,0,0,1,4.46.54,8,8,0,0,1,5.12,4.29A16.91,16.91,0,0,1,45.87,21.18ZM32.24,17h6.93A3.67,3.67,0,0,0,37.6,13.8a3.58,3.58,0,0,0-3.79-.15C32.5,14.36,32.31,15.67,32.24,17Z"/><path class="cls-1" d="M71,46.11h1v9.17c-.69.2-.88.13-1.26-.45L66.22,48v7.31h-1V46.16c.69-.18.87-.12,1.25.44l4.21,6.34.32.45Z"/><path class="cls-1" d="M21,55.32H20V46.15s.06,0,.1,0c1.18,0,2.36,0,3.54,0a2.55,2.55,0,0,1,2.59,2.37,2.65,2.65,0,0,1-2.89,3.06H21Zm0-8.27v3.61h2.12a4.91,4.91,0,0,0,.64,0,1.66,1.66,0,0,0,1.5-1.67,1.59,1.59,0,0,0-1.41-1.87A28.14,28.14,0,0,0,21,47.05Z"/><path class="cls-1" d="M56.45,55.3l-.07,0c-.93.08-.94.08-1.24-.79L52.87,48l-.18-.48L51,52.38c.56,0,1.06,0,1.56,0a1.32,1.32,0,0,1,1.15.43c.13.13.28.24.48.42l-.35,0c-.94,0-1.88,0-2.82,0a.38.38,0,0,0-.44.3c-.15.47-.35.93-.48,1.41a.46.46,0,0,1-.58.39,5.77,5.77,0,0,0-.63,0l.6-1.66c.89-2.43,1.79-4.86,2.67-7.29a.38.38,0,0,1,.47-.3c.22,0,.46-.08.58.26,1.06,2.93,2.13,5.85,3.2,8.77A1.77,1.77,0,0,1,56.45,55.3Z"/><path class="cls-1" d="M35.42,55.31V46.12h1v8.32h4.68v.87Z"/><path class="cls-1" d="M91.13,34.75a2.06,2.06,0,0,1-2.08,2.06,2.07,2.07,0,0,1,0-4.14A2.06,2.06,0,0,1,91.13,34.75Zm-.39,0A1.67,1.67,0,0,0,89.07,33a1.7,1.7,0,0,0,0,3.4A1.68,1.68,0,0,0,90.75,34.73Z"/><path class="cls-1" d="M88.71,35l0,.83h-.43V33.59h1c.31,0,.6.07.72.41a.59.59,0,0,1-.19.75l.3,1.1-.45,0C89.36,35,89.36,35,88.71,35Zm0-1.06v.67c.6.06.81,0,.82-.33S89.35,33.91,88.72,34Z"/></svg>